<svg width="28" height="20" viewBox="0 0 28 20" fill="none" xmlns="http://www.w3.org/2000/svg">
<path d="M18.5605 9.92358L28.0001 15.8138V3.78467L18.5605 9.92358Z" fill="white"/>
<path d="M0 3.78467V15.8138L9.43951 9.92358L0 3.78467Z" fill="white"/>
<path d="M26.2495 0.281738H1.7495C0.876253 0.281738 0.183252 0.924303 0.052002 1.75169L13.9995 10.8219L27.947 1.75169C27.8158 0.924303 27.1228 0.281738 26.2495 0.281738Z" fill="white"/>
<path d="M16.9577 10.9666L14.4814 12.5764C14.3344 12.6714 14.1682 12.7181 14.0002 12.7181C13.8322 12.7181 13.6659 12.6714 13.5189 12.5764L11.0427 10.9648L0.0561523 17.824C0.190902 18.6445 0.880403 19.2819 1.75015 19.2819H26.2502C27.1199 19.2819 27.8094 18.6445 27.9442 17.824L16.9577 10.9666Z" fill="white"/>
</svg>
