<svg width="26" height="23" viewBox="0 0 26 23" fill="none" xmlns="http://www.w3.org/2000/svg">
<path d="M24.3314 0.86762L0.552304 10.1746C-0.217905 10.4761 -0.171245 11.5862 0.621592 11.8213L6.66411 13.6135L8.91919 20.8004C9.15475 21.551 10.1019 21.7786 10.6502 21.2163L13.7744 18.0125L19.9042 22.5316C20.6544 23.0847 21.7227 22.6738 21.9132 21.759L25.973 2.26392C26.1718 1.30899 25.2364 0.513393 24.3314 0.86762ZM21.3501 5.19405L10.3049 15.0041C10.1948 15.1019 10.1247 15.2373 10.1083 15.384L9.68307 19.1808C9.66919 19.3046 9.49667 19.321 9.45984 19.202L7.71023 13.5396C7.63009 13.2804 7.73457 12.9995 7.96421 12.8565L21.0075 4.73152C21.3074 4.54453 21.6146 4.95926 21.3501 5.19405Z" fill="white"/>
</svg>
