<svg width="24" height="25" viewBox="0 0 24 25" fill="none" xmlns="http://www.w3.org/2000/svg">
<path fill-rule="evenodd" clip-rule="evenodd" d="M0 24.7817L1.65516 18.7817C0.579328 16.9197 0 14.8507 0 12.699C0 6.16107 5.37933 0.781738 11.9586 0.781738C18.5379 0.781738 24 6.16107 24 12.699C24 19.2368 18.5379 24.7817 11.9586 24.7817C9.88964 24.7817 7.90345 24.1197 6.12412 23.1266L0 24.7817ZM6.45545 20.9752L6.82787 21.1821C8.35892 22.1338 10.1383 22.7131 12.0003 22.7131C17.4211 22.7131 21.9315 18.2027 21.9315 12.6993C21.9315 7.19585 17.4211 2.85105 11.959 2.85105C6.49684 2.85105 2.06921 7.23724 2.06921 12.6993C2.06921 14.6027 2.60716 16.4648 3.60026 18.0372L3.84856 18.4097L2.89685 21.8855L6.45545 20.9752ZM7.98813 7.11281L8.77432 7.1542C8.93984 7.1542 9.06396 7.27832 9.1054 7.40249L10.3054 10.0921C10.3468 10.2163 10.3054 10.3818 10.2226 10.5059L9.22953 11.6232C9.14674 11.7059 9.14674 11.8301 9.18814 11.9542C10.4709 14.4369 12.8295 15.43 13.533 15.6783C13.6571 15.7197 13.7813 15.6783 13.864 15.5955L14.8985 14.2714C15.0227 14.1059 15.2296 14.0645 15.3951 14.1473L18.002 15.3473C18.1675 15.43 18.2503 15.6369 18.2089 15.8025L18.0848 16.3818C17.9606 17.0025 17.5882 17.5818 17.0089 17.9542C16.2641 18.4094 15.3537 18.6163 14.1951 18.2852C10.5537 17.2508 8.48472 14.8507 7.40884 13.3611C6.33296 11.8715 5.8778 10.3818 6.16744 9.14043C6.33296 8.31281 6.95364 7.69213 7.32606 7.3611C7.49158 7.19559 7.73983 7.11281 7.98813 7.11281Z" fill="#274342"/>
</svg>
