<svg width="115" height="38" viewBox="0 0 115 38" fill="none" xmlns="http://www.w3.org/2000/svg">
<path d="M18.55 18.8V30.5L18.65 32.8C18.75 33.8667 19.0167 34.6333 19.45 35.1C19.8833 35.5667 20.6167 35.8667 21.65 36L24.2 36.2V37H0.2V36.2H1.75C2.48333 36.1 3.18333 36.0167 3.85 35.95C4.51667 35.85 5.03333 35.6 5.4 35.2C5.8 34.7667 6.05 34.0167 6.15 32.95L6.25 30.65V6.95L6.15 4.65C6.05 3.58333 5.8 2.83333 5.4 2.4C5 1.96666 4.43333 1.7 3.7 1.6C2.96667 1.5 2.33333 1.45 1.8 1.45C1.26667 1.41667 0.766667 1.38333 0.3 1.35V0.549998L22.65 0.499999C25.75 0.499999 28.2667 0.633332 30.2 0.899997C32.1333 1.16666 33.7 1.7 34.9 2.5C36.1333 3.3 37.1 4.3 37.8 5.5C38.5333 6.66666 38.9 8.03333 38.9 9.6C38.9 10.7667 38.6833 11.9333 38.25 13.1C37.85 14.2667 37.2167 15.2667 36.35 16.1C35.4833 16.9333 34.4 17.5833 33.1 18.05C31.8333 18.5167 29.8 18.75 27 18.75V19.1C28.7 19.4667 30.1167 19.8167 31.25 20.15C32.4167 20.4833 33.4667 20.9667 34.4 21.6C35.3333 22.2333 36.1667 23.1833 36.9 24.45C37.6667 25.6833 38.2833 27.05 38.75 28.55C39.2167 30.0167 39.6333 31.0667 40 31.7C40.3667 32.3 40.8833 32.6 41.55 32.6C42.4167 32.6 42.9833 32.05 43.25 30.95C43.55 29.8167 43.7 28.5333 43.7 27.1H44.5C44.5 28.7333 44.4 30.0333 44.2 31C44 31.9667 43.5 32.9833 42.7 34.05C41.9 35.0833 40.75 35.9333 39.25 36.6C37.7833 37.2333 36.1833 37.55 34.45 37.55C31.75 37.55 29.5833 36.7833 27.95 35.25C26.35 33.6833 25.35 31.65 24.95 29.15C24.5833 26.6167 24.2833 24.4833 24.05 22.75C23.6833 20.8167 23.2 19.7 22.6 19.4C22 19.0667 21.35 18.8833 20.65 18.85C19.95 18.8167 19.25 18.8 18.55 18.8ZM22.55 17.75C23.8167 17.55 24.7667 16.6333 25.4 15C26.0667 13.3667 26.4 11.55 26.4 9.55C26.4 7.91666 26.0667 6.31666 25.4 4.75C24.7333 3.15 23.9333 2.21667 23 1.95C22.0667 1.68333 21.2333 1.53333 20.5 1.5C19.7667 1.46667 19.1167 1.43333 18.55 1.4V17.9H20.25C21.1833 17.9 21.95 17.85 22.55 17.75ZM61.2055 37H45.0055V36.2L46.2055 36.15C47.1721 36.05 47.7555 35.8167 47.9555 35.45C48.1555 35.0833 48.2555 34.2833 48.2555 33.05L48.3055 30.75V18.8L48.2555 16.75C48.1888 15.95 48.0888 15.35 47.9555 14.95C47.8221 14.55 47.2221 14.3 46.1555 14.2L44.8055 14.1V13.3H57.9055V30.75L57.9555 33.05C57.9555 34.25 58.0555 35.05 58.2555 35.45C58.4555 35.8167 59.0388 36.05 60.0055 36.15L61.2055 36.2V37ZM48.2055 4.95C48.2055 3.65 48.6721 2.55 49.6055 1.65C50.5721 0.716666 51.7221 0.249999 53.0555 0.249999C54.4221 0.249999 55.5721 0.699999 56.5055 1.6C57.4721 2.46667 57.9555 3.58333 57.9555 4.95C57.9555 6.28333 57.4721 7.41667 56.5055 8.35C55.5721 9.25 54.4221 9.7 53.0555 9.7C51.7221 9.7 50.5721 9.25 49.6055 8.35C48.6721 7.41667 48.2055 6.28333 48.2055 4.95ZM77.1977 14.1C76.9977 14.1 76.7977 14.1167 76.5977 14.15C76.3977 14.15 76.031 14.2 75.4977 14.3C74.9977 14.3667 74.7477 14.75 74.7477 15.45C74.7477 15.8167 74.781 16.1333 74.8477 16.4C74.9143 16.6667 75.031 17 75.1977 17.4L78.9977 27.5L82.5477 18.3C82.9477 17.1333 83.1477 16.2167 83.1477 15.55C83.1477 15.0833 83.031 14.7667 82.7977 14.6C82.5643 14.4333 82.1977 14.3 81.6977 14.2L80.0977 14.1V13.3H88.4477V14.1L86.5977 14.3C86.0643 14.4 85.581 14.7167 85.1477 15.25C84.7143 15.75 84.2643 16.6 83.7977 17.8C83.331 18.9667 82.4143 21.3 81.0477 24.8C79.7143 28.3 78.6977 30.9667 77.9977 32.8C77.2977 34.6333 76.7477 36.1 76.3477 37.2H72.7977C72.231 35.7667 71.531 33.9667 70.6977 31.8C69.8643 29.6 68.8143 26.8833 67.5477 23.65C66.281 20.3833 65.4143 18.1833 64.9477 17.05C64.481 15.9167 64.131 15.2 63.8977 14.9C63.6977 14.5667 63.381 14.3667 62.9477 14.3C62.5143 14.2 62.1143 14.15 61.7477 14.15C61.381 14.1167 61.1143 14.1 60.9477 14.1V13.3H77.1977V14.1ZM114.592 25.15C114.592 28.6833 113.242 31.6333 110.542 34C107.875 36.3333 104.725 37.5 101.092 37.5C97.2585 37.5 94.0418 36.3333 91.4418 34C88.8751 31.6333 87.5918 28.6833 87.5918 25.15C87.5918 21.6167 88.8918 18.6833 91.4918 16.35C94.1251 13.9833 97.3251 12.8 101.092 12.8C104.792 12.8 107.958 13.9667 110.592 16.3C113.258 18.6333 114.592 21.5833 114.592 25.15ZM104.642 25.1C104.642 24.6333 104.608 23.7 104.542 22.3C104.475 20.9 104.442 20.0667 104.442 19.8C104.442 18 104.158 16.5167 103.592 15.35C103.058 14.1833 102.208 13.6 101.042 13.6C99.9751 13.6 99.1585 14.2167 98.5918 15.45C98.0251 16.65 97.7418 18.1 97.7418 19.8C97.7418 20.4333 97.7085 21.2167 97.6418 22.15C97.6085 23.05 97.5751 24.0333 97.5418 25.1C97.5418 25.5667 97.5751 26.5333 97.6418 28C97.7085 29.4333 97.7418 30.2667 97.7418 30.5C97.7418 32.3 98.0085 33.7833 98.5418 34.95C99.1085 36.1167 99.9585 36.7 101.092 36.7C102.192 36.7 103.025 36.1 103.592 34.9C104.158 33.7 104.442 32.2333 104.442 30.5C104.442 29.8333 104.458 29.05 104.492 28.15C104.525 27.2167 104.575 26.2 104.642 25.1Z" fill="white"/>
</svg>
